/* XPM */
static char *_7b1db7cc5c74d38cde1ecfbf98861dfK73PuirCj3js0A12[] = {
/* columns rows colors chars-per-pixel */
"64 64 239 2 ",
"   c #0D0401",
".  c #0A0801",
"X  c #140300",
"o  c #1A0100",
"O  c #110B03",
"+  c #2D1B0D",
"@  c #2E1B11",
"#  c #321D13",
"$  c #321708",
"%  c #4B2D23",
"&  c #5D3B2A",
"*  c #543B30",
"=  c #623D2C",
"-  c #673B27",
";  c #613F30",
":  c #793F2A",
">  c #522C1F",
",  c #46413D",
"<  c #5D4132",
"1  c #5D473B",
"2  c #65412E",
"3  c #6B432D",
"4  c #7E442D",
"5  c #72412B",
"6  c #654434",
"7  c #694534",
"8  c #6A4738",
"9  c #6C493A",
"0  c #694837",
"q  c #774B36",
"w  c #745036",
"e  c #76513B",
"r  c #795644",
"t  c #7B5844",
"y  c #795748",
"u  c #7F5F49",
"i  c #7D614D",
"p  c #7F6250",
"a  c #4E4442",
"s  c #843E2B",
"d  c #84442D",
"f  c #8B442C",
"g  c #82482E",
"h  c #884628",
"j  c #934C2F",
"k  c #844532",
"l  c #8A4532",
"z  c #844934",
"x  c #8B4933",
"c  c #8D4B39",
"v  c #934D36",
"b  c #8C5E3C",
"n  c #8D5B37",
"m  c #915E3D",
"M  c #9B543A",
"N  c #A3583B",
"B  c #8E603D",
"V  c #90603A",
"C  c #AD653B",
"Z  c #AA653B",
"A  c #B2663E",
"S  c #B36A3D",
"D  c #82441F",
"F  c #835E45",
"G  c #835F4C",
"H  c #895E43",
"J  c #975D45",
"K  c #876044",
"L  c #8A6346",
"P  c #85624B",
"I  c #89644B",
"U  c #99644A",
"Y  c #816252",
"T  c #866652",
"R  c #836355",
"E  c #826554",
"W  c #856453",
"Q  c #886753",
"!  c #876856",
"~  c #896956",
"^  c #8A6955",
"/  c #8B6D5A",
"(  c #8E705E",
")  c #90715F",
"_  c #AE6945",
"`  c #A86447",
"'  c #B46B42",
"]  c #B66B46",
"[  c #BB734C",
"{  c #B9734B",
"}  c #BB6B53",
"|  c #B66B55",
" . c #BC7353",
".. c #BB735A",
"X. c #B87657",
"o. c #A16E53",
"O. c #907262",
"+. c #AE7964",
"@. c #A35C40",
"#. c #C26E4E",
"$. c #C3764B",
"%. c #C9764A",
"&. c #C5794D",
"*. c #CB7B4D",
"=. c #C87847",
"-. c #C36F52",
";. c #C27253",
":. c #C57A53",
">. c #CA7D52",
",. c #C5775B",
"<. c #D2795E",
"1. c #D27E50",
"2. c #D47D4F",
"3. c #C87A63",
"4. c #D47D65",
"5. c #DC7B64",
"6. c #D47E69",
"7. c #D97C69",
"8. c #A5826C",
"9. c #B18E7B",
"0. c #B48F7A",
"q. c #DA8E5D",
"w. c #D58959",
"e. c #DE915E",
"r. c #DF995D",
"t. c #C88256",
"y. c #E9985B",
"u. c #F09B5B",
"i. c #C78668",
"p. c #DA8D63",
"a. c #D68766",
"s. c #DC9262",
"d. c #D99669",
"f. c #DB9773",
"g. c #C69175",
"h. c #E29563",
"j. c #E29A64",
"k. c #E99C67",
"l. c #E49E74",
"z. c #EA9D74",
"x. c #E49E7B",
"c. c #E89E7C",
"v. c #E59773",
"b. c #F29D62",
"n. c #DEA17C",
"m. c #DAA379",
"M. c #E9A169",
"N. c #E3A175",
"B. c #EBA174",
"V. c #E3A17C",
"C. c #EBA27B",
"Z. c #E4AB7C",
"A. c #F8A772",
"S. c #B69B89",
"D. c #B8A796",
"F. c #ADADA7",
"G. c #B3AEA3",
"H. c #D39D85",
"J. c #C29985",
"K. c #E49E80",
"L. c #DBA282",
"P. c #D6A487",
"I. c #DCAC99",
"U. c #DEB195",
"Y. c #DDB69C",
"T. c #CDAA8F",
"R. c #E6A483",
"E. c #EAA583",
"W. c #EBA985",
"Q. c #E4A58A",
"!. c #E4AC8B",
"~. c #EBAC8B",
"^. c #E6AA87",
"/. c #ECB18D",
"(. c #E6B38D",
"). c #F2B28F",
"_. c #E3AD95",
"`. c #E7AD96",
"'. c #E4B293",
"]. c #ECB293",
"[. c #E5B69B",
"{. c #EAB59A",
"}. c #E5B99C",
"|. c #ECBB9C",
" X c #E9BA94",
".X c #F4BB9D",
"XX c #F5B796",
"oX c #F2AE8C",
"OX c #DCB8A5",
"+X c #C4B1A0",
"@X c #E5BDA4",
"#X c #EABDA3",
"$X c #E4BCAA",
"%X c #ECBEAB",
"&X c #E7B6A1",
"*X c #F3BDA5",
"=X c #F2BCA9",
"-X c #F9B9A4",
";X c #E9BFB2",
":X c #F6C39D",
">X c #EAC19E",
",X c #E7C0A4",
"<X c #EBC2A6",
"1X c #E6C0AB",
"2X c #EBC4AD",
"3X c #EEC9AE",
"4X c #F4C4A5",
"5X c #F2C4AB",
"6X c #F2C9AD",
"7X c #FAC8A9",
"8X c #E5C4B2",
"9X c #EAC5B1",
"0X c #EDCAB3",
"qX c #EBCBB9",
"wX c #E5CAB8",
"eX c #F3C5B2",
"rX c #F2CDB2",
"tX c #F2CEB9",
"yX c #F9C9B3",
"uX c #EED3BD",
"iX c #EFD0B4",
"pX c #F2D0B5",
"aX c #F1D3BC",
"sX c #FCD8B9",
"dX c #EDD5C1",
"fX c #EAD6CB",
"gX c #F0D4C1",
"hX c #FDDCC8",
"jX c #FBDFD3",
"kX c #FFECDD",
"lX c #FFE6D4",
"zX c #FFEBD7",
"xX c #FFEEE5",
"cX c #FFF4EB",
"vX c #FFFAED",
"bX c #FFF4E4",
"nX c #FFFCF4",
"mX c #FDFDFD",
"MX c #F9F9F9",
/* pixels */
"i i i i i i Y Y E E E E T T R R G G G G G G G G r r y y y y y y 0 8 6 7 8 7 6 8 6 6 6 6 6 6 6 6 8 8 8 6 7 8 8 6 7 6 < < < < < < ",
"i i i i i i Y Y E Y Y Y R R R Y G G G G G G G G r r y y y y y y 9 8 7 8 8 7 7 8 7 7 7 7 7 7 7 7 6 7 8 6 6 8 8 7 7 6 < < < < < < ",
"i i i i i p Y Y E Y Y Y R R R Y G G G G G G G G r r r r r r r y 0 7 7 7 7 7 7 7 7 7 7 7 7 7 7 7 6 8 8 6 6 7 7 7 7 6 < < < < < < ",
"i i i i i p p Y E E Y R T T R Y G G G G G G G G r r r r r r r r 0 7 7 7 7 7 7 7 7 7 7 7 7 7 7 7 7 8 8 8 7 7 7 7 7 6 < < < < < < ",
"i i i i i i i i Y Y Y R R R Y Y P G G G G G G G r r r r r r r r 0 7 7 7 7 7 7 7 7 7 7 7 7 7 7 7 6 8 8 8 8 7 6 6 6 6 < ; < < < < ",
"i i i i i i i i Y Y Y Y R R Y Y G G G G G G G G t t t t t t t t 9 7 7 7 7 7 7 7 7 7 7 7 7 7 7 7 7 6 6 8 8 7 7 7 7 6 ; ; < < < < ",
"E E E E E E T T T T T T T T T W G G G G G G G G G G G F F F F F e w w w w w w w w w w w w w w w e 9 6 6 7 7 7 7 7 7 6 ; ; 6 6 6 ",
"/ / / / / / / / ~ ! ! ! ~ ~ Q T G G G G G G G G P P P P P P P I L K H K K H H K K K K K K K K H F e 8 6 7 7 7 8 8 7 6 6 6 6 6 6 ",
"/ / / ! / / / T ! ~ ~ Q ~ ~ Q T G G G G P P P P T I I I I I P L K b b b b b b b b b b b b b b H H e 7 7 7 7 8 7 6 9 6 6 6 & 6 7 ",
"/ ( ( / ~ ! ~ / T T T T T Q T P G G G G G G G G P I I I I I K L b n b n n b n b n b n b n b n b H w 3 7 2 7 7 2 = 6 = 6 0 8 6 < ",
"/ ! ~ / ) / ~ ~ ~ ~ ~ ~ ~ / ~ T P P P P P P P I I I I I I I I L B V m V m V m V m V m V m V m B I e 7 7 7 7 7 7 9 9 8 = ; 6 ; 8 ",
"( / / / / / ! Y T Q Q T T ~ Q P G G G G G G G P I I I I I I K L b n n n n n n n n n n n n n n b H w 3 3 3 3 7 2 = 2 7 2 6 7 & 6 ",
"/ / / ~ T / / / Q ~ ~ Q Q ~ Q I P P P P P I I I I I I I I I I L B B m B b n b n m B m B V B m B H w 3 3 3 7 7 7 9 8 6 = 8 9 6 ; ",
"! ! ! / / ) ~ P Q ~ ~ Q Q ~ Q I u u i i G G G G I I I I I I I L b b b b b b b b b b b b b b b b H q 3 3 3 3 3 2 = 7 = 6 6 = 7 8 ",
"O./ / ( ( ~ Q / Q ~ ~ Q Q ~ Q I P P P P I P P P I I I I I I I I H b b b b b b b b b b b b b b H H w 3 3 3 3 7 7 2 e = 6 8 & 8 ; ",
"T Y ! / Y P 9.8XqXqXqXqXqXtX0X3XqXqXqXqXqXqXqXtXpXtXtXtXtXtXtXtX6X6X6X6X6X6X6X5X6X6X6X6X6X6X5X6X6X}.U.U.U.U.[.U.Y.J.7 & 6 & e & ",
"T T T Q ~ P 8.tXtXtXpXpXtXtXrXrXtXpXpXpXpXpXpXpXaXaXaXuXuXuXdXaXrXrXrX6X6X6X6X6X6X6X6X6X6X6X6X6X7X|.'.]././.].].|.P.- - = = = = ",
"/ ~ T T Q P +.tXpXpXtXrXrXrXrXpXrXrXrXrXtXiXuXuXuXuXuXuXdXdXdXuX0X0X3X3X3X3X3X3XeXeXrXrXrXrXrX6X7X X(./.~.~.oX~./.H.: - = = = = ",
"~ Q T T ^ Q 8.tXpXtXrXrXrXrXpXpXpXpXpXpXpXpXpXpXaXaXdXdXdXdXdXdXqXrX0X0X6XrXrXeXrXrXrXrXrXrXrX6X7X|.(./././.).].].H.5 - = = = 2 ",
"P T T Q ^ T 8.tXtXtXrXrXrXrXrXrXpXpXpXpXpXpXpXpXaXaXgXdXdXdXdXgXtXrXrXeX6XrXrXrXrXrXrXrXrXrXrXrX7X|.'.]./.).).].{.H.- - - = = 2 ",
"Q / / ^ ^ I 8.tXtXtXtXtXrXrXrXpXrXrXrXrXpXpXpXuXaXuXuXuXdXdXdXuXtXeXeX6X6X6X6XeXeXrXrXrXrXrXeX6X6X}.'.]././.].].{.H.: - 7 7 2 = ",
"P Q Q P I P 8.tXtXtXtXtXpXpXpXpXrXrXrXpXpXpXpXpXaXaXaXuXdXdXdXaXrXrXrXrXeXeXeXeXeXeXrXrXrXrXeX6X6X|.'.]././.].].{.H.- - - - - - ",
"Q ^ ~ Q / ^ 8.0XtXtXrXrXtXtXrXrXrXrXrXpXtXpXpXpXaXaXaXaXgXgXgXaXrX6X6X6X6X6X6X6X6X6XeXeXeXeXrX6X6X|.'././.~./.~.~.H.: - - - - 5 ",
"9.9.9.9.0.9.S.aX0X0X0X0XeXeXeXeX6X6X3X3X3X3X0X0XtXqXqXqXqXqXqXqX3X5X5X<X<X<X<X<X5X6X6XeXeXeXrX6X7X X!.^.W.E.W.E.~.Q.J U o.U U U ",
"9X9X9X8X2X2X9X0X0X0X0X3X3X6X3X<X,X,X@X@X@X,X1X1X2X9X9X8X8X8X8X9X#X}.[.}.}.[.[.}.@X6XeX3X6X6X3X6X4X(.n.n.l.l.N.l.V.n.L.L.L.L.L.L.",
"9X9X9X9X2X2X9X0X0X0X0X3X3X3X3X<X,X,X,X,X@X,X1X1X9X9X9X9X9X8X8X9X#X[.[.[.}.[.}.}.#X6XrX3X6X6X3X6X4X(.n.N.l.l.N.z.l.V.n.n.n.n.n.n.",
"2X2X2X2X2X2X9X0X0X0X0X9X0X0X3X<X#X#X#X,X@X,X,X1X2X2X9X9X9X9X9X2X#X{.[.{.{.[.}.}.#X6XeX5X6X6X3X6X4X(.n.N.l.l.z.l.z.z.x.V.V.V.x.x.",
"2X2X2X2X2X2X9X0X9X9X0X9X0X0X3X<X#X@X@X@X@X@X@X,X2X2X9X9X9X9X9X2X#X{.{.{.{.[.}.}.#X5XeX3X6X6X2X6X4X^.n.N.l.l.N.l.l.l.x.x.x.x.z.z.",
"2X2X2X2X2X2X9X9X0X0X0X9X0X0X3X<X#X#X#X#X#X#X#X,X2X2X9X9X9X9X9X2X#X{.{.{.{.[.[.}.|.5X6X5X6X6X3X6X4X^.n.N.l.l.N.l.l.l.x.x.c.c.z.z.",
"9X2X2X2X2X2X9X9X0X0X0X9X0X0X3X<X#X#X,X#X#X#X<X<X2X2X9X9X9X9X9X2X#X{.{.{.{.{.[.[.#X6XrX5X6XeX3X6X4X^.n.n.l.l.N.N.l.N.x.x.x.c.z.z.",
"9X9X2X2X2X2X9X9X0X0X0X9XeXeX3X<X#X#X#X#X#X#X#X#X2X2X9X9X9X9X9X2X|.].{.{.{.{.[.[.#X5XrX<X6X6X3X5X4X!.n.n.l.l.N.N.N.V.V.V.x.x.z.z.",
"9X9X2X2X2X9X8XwXqXqXwXwXqXqXwX8X$X$X$X$X$X$X$X$X2X5X2X2X2X2X2X5X|.{.{.{.{.[.[.}.&X3X0X9X9X0X8X9X3XU.P.P.P.P.P.P.P.L.n.n.x.x.x.V.",
"eXeXeXeXeXqXgXvXcXcXcXnXnXcXnX1 @ @ @ @ @ + $ 7 2X%X=X=X=X=X=X%X4X4X4X4X4X4X<X2XT.$ # # @ # @ # + +XbXxXbXxXbXbXbXlXU.!.~.^.^.^.",
"eXeXeXeX0XqXfXnXmXmXmXmXmXMXmXa           X X % %X%X*X*X*X*X*X#X4X<X4X4X4X4X<X9XS.X X X         O G.nXmXmXMXmXmXnXkXOXI././.!.'.",
"eXeXeX0XqXwXfXnXmXmXmXmXmXmXmX,             X % 8X%X=X*X*X=X=X<X<X<X<X<X<X<X2X9XS.X X           . F.mXmXmXmXmXmXnXbXOXI._._.'.U.",
"0X0X0XwXqXwXfXnXmXmXmXmXmXmXmX,       .   X X % 8X%X=X=X*X=X%X<X<X<X<X<X<X<X2XwXD.X       O   O . F.mXmXmXMXmXmXnXbXOXI._._.U.U.",
"0XwX0XwXqXwXfXnXmXmXMXmXmXmXmX,             X % 8X%X=X=X=X=X%X%X2X2X2X<X<X2X9XwXS.X       .   . . F.mXmXmXmXmXmXnXxXOXI.I._.U.U.",
"0XwX0XwXqXwXfXnXnXmXmXmXmXmXmX,           X X % ;X%X=X=X=X=X=X%X3X2X<X<X<X<X3XwXS.X X O O O     . F.mXmXmXmXmXnXnXkXOXI._._.U.U.",
"0X9X0X0XwXwXdXvXnXmXmXmXmXmXnX* X X X     X X % ;X=X=X*X*X*X=X%X5X5X5X5X4X<X3X9XS.o X X   X     O G.mXnXmXnXnXvXvXkXOX_._._.'.'.",
"eX5XeX5X0X0XgXvXcXnXnXnXnXnXnX* X X X X X o o > %X=X-X-X-X*X*X*X5X4X4X4X4X4X5X3XS.o o X X X X X   D.vXbXcXcXvXvXbXlX[._.~.~.^.^.",
"=X=X*X#X#X<XrXhXlXkXzXkXjXkXjX( 8 < 1 1 1 6 e r I.Q.Q.Q.Q.Q.Q.Q.Q.Q.Q.Q.Q.Q.Q.P.0.9 & 0 & 0 & 6 < T.hXhXhXhXsXsXsX7XL.f.f.z.f.f.",
"!.!.!.!.!.P.'.<X$XOXOXqX8X$XtX$X8X8XwXwX8X;X$X&X+.....}  . .X.X..... . . . .X.X.g.I.<X1XOX0X$XOXY.Y.P.g.m.L.m.m.L.m.X.:.:.>.*.t.",
"!.~.~.~.~.Q.!.#X%X2X$X$X$X@X&XeX9X$X8X8X8X8X%X_.....;.;.;.;.......;.;.;.;.;. . .i.*X5X#X&X,X&X<X>X!.m.n.l.d.d.m.d.d.$.*.*.*.%.*.",
"E.~.~.~.~.W.~..X|.5X5X&X5XyX&X&X5X2X9X8X9XtX5X`...} } #.#.}  . .} } -.#.#.[ [  .i..X{.#X5X}.[.|. Xm.m.B.M.M.M.M.M.j.*.2.2.2.*.*.",
"E.~.E.E.W.E.~..X*X'.=X#X&X=X|.7X%X2X9X$X$X2X=X_... .;.;.;.;. . .;.;.;.;.;.;.;. .X..X.X4X#X<X7X|.:XZ.d.h.y.b.M.y.M.j.*.*.%.*.=.=.",
"~.~.W.W.W.W.~..X7X{.5X5X&X#X#X5X%XeXeX9X2XeX=X`... .-.#.#.-. . .} -.-.$.$.[ [  .i..X.X|.U.}.4X X XN.B.A.b.y.u.M.M.j.*.*.*.*.%.*.",
"~.~.E.E.W.E.^..X.X|.#X&X#X=X=X|.&X$X%X%X$X2X%X`... .-.-.;.;. . . . .;.;.$.[  .X.i.].|.4X4X<X>X X:XZ.j.k.b.u.y.y.j.d.*.>.*.>.*.*.",
"~.W.E.E.~.W.~.XX.X4X.X|.*X|.|.5X5X2X%X2X2X5X=X`.....-.-.;.;. . . .;.;.;.;.;. . .i..X4X|.|.|.[.:X XZ.l.h.b.b.b.j.j.d.>.t.>.>.&.*.",
"W.W.W.W.E.W.oX).XXXXXXXX:XXX7XXX=X=X%X%X5X=X|.XX....-.-.-.-.-.-.-.-.-.-.-.-.;. .i.].7X|.4X|.*X|.XXW.l.j.M.M.j.M.k.j.>.>.*.>.*.*.",
"V.V.V.V.x.x.R.E.C.E.V.V.E.f.K.X.J U U J U J J ` 3.3.4.4.<.<.<.<.<.<.<.<.<.<.4.3.} ` m m U m J J Z t.p.s.s.e.q.e.s.s.$.$.$.&.%.=.",
"x.V.V.x.x.x.x.c.z.V.C.V.V.R.x.J k z z 4 k 4 x M a.a.7.7.5.5.7.7.a.5.5.5.5.7.6.a.3.v s f c 4 k f D [ d.s.q.e.e.h.e.q.$.$.$.&.%.%.",
"V.V.R.R.K.x.x.c.C.z.C.z.x.E.E.M d k k 4 d : f M 6.4.7.5.5.5.5.5.5.5.5.5.5.5.7.4.} f d d f d x d h X.d.w.w.e.e.q.s.p.$.$.$.*.%.%.",
"x.x.x.R.K.x.x.c.C.v.z.z.v.x.x.M l z z z z d l M 6.4.5.5.5.5.5.5.5.5.5.5.5.5.5.4.,.j x d : k c f h [ d.p.s.h.q.q.q.q.$.$.$.&.%.%.",
"x.x.x.K.K.x.c.c.C.v.B.C.z.c.c.@.f d d f l f f M 6.6.5.5.5.5.5.5.5.5.5.5.5.5.5.6.,.s f k k k k d h [ d.d.s.e.e.h.q.q.$.$.$.&.%.%.",
"V.V.K.K.K.c.c.c.z.v.z.B.z.C.c.N f k k z l f f N 6.6.5.5.5.5.5.5.5.5.5.5.5.5.7.6.,.s f x c c k l h  .d.w.w.q.q.h.e.p.$.&.&.&.%.%.",
"V.V.x.x.K.x.c.c.C.B.B.z.z.C.z.N f z d k f d f M 6.6.6.5.5.5.5.5.4.4.5.5.5.7.6.6.3.l x s k k s x h  .d.s.s.j.q.w.q.p.[ $.$.&.%.%.",
"V.V.x.x.x.x.c.z.z.z.B.z.z.C.v.N d d z z g d l M i.a.6.4.4.4.4.4.4.4.4.4.4.6.6.6...v s x z k z d h  .d.d.s.s.q.h.p.p.:.$.:.&.%.%.",
"d.f.f.f.f.f.d.p.p.p.s.p.p.p.p.N d d d k d 4 g v | | } } } } } | } } } } } } } } ` l d z k k z d f { a.w.w.w.w.w.w.w.[ ] [ ] #.#.",
"{ { { { {  .{ ' ' A ' S A A ' h d d d g 4 4 d g f f f f f f f f f f f f f f f f c 4 k z 4 4 z d h _ :.:.*.*.%.*.>.:.' A ' A ' A ",
" . . . . . .{ ] ' A ' ' ' C ] j d d d g 4 4 4 d l f l f l f f f k k l f l l l l d 4 z z 4 4 z f h _ :.$.%.%.=.&.&.$.A C ' A A A ",
"{ { { { { { ] A S C C C ' C _ j d k d k k k k d k d k d k f f d k k k k k l k k d k z k 4 k z d h _ :.&.*.*.%.%.&.$.A C ' A A A ",
"[ [ [ [  . .{ ' ' S S C { ' _ j f k k k k k k k l l l l l l z z z z z x x x l l k z z k k z l d h _ :.:.*.*.%.&.&.$.' C ' A ' A ",
"{ { { { [ [ ] ' C S S Z ' _ _ j d l k k k z z k k k k k k k k k 4 4 k k k k k k k z z d f k f f h _ :.:.&.*.%.*.&.$.' C ' A A A ",
"[ { { { [  .{ ' C ' ' Z ' _ _ v f l l d k k k k k k l k l k k k z z z z z k l k d z f d k f d x f _ :.$.&.*.%.*.&.$.' C ' A A A "
};
