/* XPM */
static char *_8d11d569b084b1297f92d7aafd9fae04ztwU9jMhGfKc3Bk[] = {
/* columns rows colors chars-per-pixel */
"64 64 194 2 ",
"   c #076002",
".  c #0B6406",
"X  c #0D6609",
"o  c #0F690B",
"O  c #10620E",
"+  c #126B0D",
"@  c #166311",
"#  c #186714",
"$  c #156E12",
"%  c #196D16",
"&  c #1C6E1A",
"*  c #177012",
"=  c #1A7315",
"-  c #1D7619",
";  c #1F781A",
":  c #226F1D",
">  c #21751E",
",  c #227B1D",
"<  c #247622",
"1  c #297526",
"2  c #257D21",
"3  c #297D25",
"4  c #2B752B",
"5  c #2C7D2A",
"6  c #307F2C",
"7  c #25841E",
"8  c #278022",
"9  c #2A8325",
"0  c #2E8D27",
"q  c #2C8229",
"w  c #2D8229",
"e  c #2B8428",
"r  c #2C8529",
"t  c #2D8628",
"y  c #2C8728",
"u  c #2E8729",
"i  c #2F852A",
"p  c #2D862A",
"a  c #2E872B",
"s  c #2E8429",
"d  c #2F822D",
"f  c #2F852C",
"g  c #2D8529",
"h  c #2D8828",
"j  c #2E8828",
"k  c #2F882A",
"l  c #2F8A2B",
"z  c #2F882C",
"x  c #2F8A2D",
"c  c #2F882A",
"v  c #308729",
"b  c #31862A",
"n  c #31832F",
"m  c #30862D",
"M  c #31872E",
"N  c #31852F",
"B  c #31852D",
"V  c #30892B",
"C  c #31882A",
"Z  c #308B2B",
"A  c #33882B",
"S  c #30892D",
"D  c #318A2C",
"F  c #308B2C",
"G  c #328B2D",
"H  c #338A2C",
"J  c #33892F",
"K  c #318A2E",
"L  c #328B2F",
"P  c #32882D",
"I  c #368B2E",
"U  c #328D2D",
"Y  c #338C2E",
"T  c #328D2D",
"R  c #348D2F",
"E  c #328B2D",
"W  c #31902C",
"Q  c #338631",
"!  c #348531",
"~  c #388036",
"^  c #338930",
"/  c #348832",
"(  c #338C30",
")  c #348D31",
"_  c #358E30",
"`  c #368F31",
"'  c #358E32",
"]  c #368F33",
"[  c #378D32",
"{  c #358D31",
"}  c #398C35",
"|  c #3B873C",
" . c #398F38",
".. c #3E8E3A",
"X. c #369132",
"o. c #359032",
"O. c #379034",
"+. c #379032",
"@. c #389133",
"#. c #399234",
"$. c #3A9335",
"%. c #3A9337",
"&. c #399136",
"*. c #3C9237",
"=. c #399235",
"-. c #3C903A",
";. c #3D9539",
":. c #3D9439",
">. c #3E9839",
",. c #418E3C",
"<. c #429B3F",
"1. c #419B3C",
"2. c #458D43",
"3. c #4B8E49",
"4. c #449441",
"5. c #499446",
"6. c #439C40",
"7. c #4E934B",
"8. c #4D9B4A",
"9. c #53974E",
"0. c #529C4C",
"q. c #529F51",
"w. c #52A24D",
"e. c #55A552",
"r. c #5DA655",
"t. c #57A954",
"y. c #5AAC57",
"u. c #5DA55B",
"i. c #5DAC5C",
"p. c #5EB15C",
"a. c #64A55E",
"s. c #62AC5D",
"d. c #61B05F",
"f. c #5FA660",
"g. c #5EAD61",
"h. c #64A664",
"j. c #69A664",
"k. c #63AB63",
"l. c #6AAA65",
"z. c #65A669",
"x. c #6BA46A",
"c. c #66AA69",
"v. c #6AAB69",
"b. c #70A06E",
"n. c #64B263",
"m. c #69B366",
"M. c #66BC66",
"N. c #68BC67",
"B. c #6BB46B",
"V. c #67BA68",
"C. c #6BBA6B",
"Z. c #71B76E",
"A. c #70B96F",
"S. c #70A070",
"D. c #6FBD71",
"F. c #72B473",
"G. c #79B576",
"H. c #72B973",
"J. c #7BB578",
"K. c #5FCB5C",
"L. c #62C75F",
"P. c #61CB5E",
"I. c #60D15F",
"U. c #61DC5D",
"Y. c #64E35E",
"T. c #65C664",
"R. c #69C466",
"E. c #63CA63",
"W. c #68C867",
"Q. c #66C46B",
"!. c #6BC26B",
"~. c #65D364",
"^. c #69D666",
"/. c #64D963",
"(. c #68DB66",
"). c #66D368",
"_. c #6BD569",
"`. c #67DA69",
"'. c #69D969",
"]. c #64E363",
"[. c #68E364",
"{. c #64E068",
"}. c #6AE16A",
"|. c #6FEA6E",
" X c #64FF65",
".X c #6BF46A",
"XX c #66FD6B",
"oX c #6CFD6C",
"OX c #70F26E",
"+X c #6FE970",
"@X c #6CF272",
"#X c #6DFC74",
"$X c #71F172",
"%X c #72FA73",
/* pixels */
", 2 8 2 2 9 9 9 , - , 8 8 9 9 2 > 3 3 3 9 , = , :.*.m 2 , > , 8 K K l 9 , , 9 b 8 q q , , 3 b ] V V 8 2 K t - * + = > , , 8 t K ",
", 2 p e , 2 p p , 2 2 2 9 9 8 2 3 3 3 3 2 2 > > *.&.' p , > , , R V 9 8 8 8 t b 2 8 8 3 3 9 q m J V , , p 9 * + o * , 2 2 8 9 l ",
", 2 ' ( - ; z K , 9 2 8 K p , 2 m 3 < < < < < < K K @.R , = - = Y l 9 8 9 p l p 8 q t V V V t t ] t * + , 8 , , ; , 9 9 9 8 2 2 ",
"2 8 &.' = - z p 2 e 2 2 ' K , , K f - = s s < 9 9 9 &.@.> * = + l l y 9 t p p p t b K ' @.R t , V 8 + . - , 2 t p p p p p 9 , > ",
"9 9 O.' = - p 9 z p , , ' ' 2 2 &.' o o &.&.- , 8 2 R ' , ; 8 , 8 9 F l 9 8 8 t t t y V V t , - , 2 ; - , ; + + 9 8 9 l Y V 8 ; ",
"9 2 z p - - 9 2 ' p - - p K p p :.' . . 6.<.= * 2 , 9 9 , 8 K V ; 8 y t 8 , 8 9 t t 9 8 8 , > - - 2 2 2 9 - . . 8 9 t K ' K 8 - ",
"2 , 2 2 - , 8 2 p 2 - - 2 p p z z p * = $.X.= = - - , 2 9 p p 9 = = ; , , , 8 8 V l t 7 > ; , , 2 9 , , 9 2 - - K K K l 9 2 , > ",
"- - , ; - , 8 9 , - ; , , 8 e 9 - , 9 p p 8 , , = - , 9 R K , - * + + * ; 8 9 8 Y F t , ; ; , t t p 2 , K K t l @.' l , = = > 8 ",
", - , - - 2 2 e 2 8 2 2 , , p 8 , 8 X.X., , 9 2 - = e p 2 q q 8 $ + - ; + = 9 9 K 9 8 8 8 8 8 t V l ; , , , K l Y X.p V , = , - ",
"2 - , - ; 2 , 2 ( K e 8 , , z p 9 l &.K = = 9 K = - ( K < 3 p K % $ 2 , + $ 2 9 9 , , 8 t l V Y K p - = = = 9 9 9 V R ' 9 ; > = ",
"2 , 2 2 2 8 , , K K 8 , = - p p 8 z X.z 2 2 9 p = - m s > < 3 s > < m s % % 3 p 9 3 8 p V l 9 9 K l , ; - ; t V 2 9 &.&.p 2 - = ",
"2 2 p p p p , ; 2 2 , - $ = p p * ; , 8 p p 2 , 2 - < < < 3 > & m ^ :. .s 3 m ^ % = - 2 t 9 2 ; 9 p t t t t Y ' 2 8 :.&.p 9 ; , ",
"- , K K p 9 - - 2 8 , - $ = z K = - 2 2 m m 9 < < > < > 3 3 # O n d Q Q n d 5 < > > 2 2 9 q 3 < 2 8 l V p p p K , , &.' 9 9 ; , ",
"o $ 2 8 2 , * = z p , - $ = e p - 2 K ^ s 2 > - 3 5 n 5 n 6 > > 5 3 3 3 5 5 < - m s 2 2 , 3 9 q 2 2 p 9 8 9 2 9 , , V K 8 2 ; - ",
"o $ , 2 , 2 - , K K 9 2 - - e 9 % - m ^ 3 2 5 3 3 n } n ! ! 1 5 4 4 < 1 5 3 < < Q Q s < > < 3 9 > - 8 , , 9 , 9 2 8 8 9 , - , - ",
"- - 2 9 e K p K ( ' ' ' z p ' p , - q ^ } 8.n.d.m.C.C.m.C.C.k.B.B.A.B.V.V.m.m.C.n.s.e.4.m 2 ; = $ + , , 2 p 2 t p p , , - = 9 , ",
", , > , p Y Y ' <.;.X.' @.@.R l ; 7 p s k.u.a.k.k.k.k.k.k.c.j.j.j.v.c.k.k.s.k.k.k.k.f.k.5 2 = * * * = ; 2 e p z K z , , = = e 8 ",
", t V K K 8 - - , t R R t 2 , , 0 8 > : u.c.v.c.k.g.i.i.k.z.z.x.j.j.k.k.s.y.s.k.c.c.z.c.| :.Y x 9 9 8 2 - = $ $ 9 f z 9 = $ 2 p ",
", 9 t p l 2 * + = 2 K K 9 > - , X.p < 1 u.c.v.c.k.n.p.p.n.k.k.c.c.c.k.n.p.p.k.k.k.v.z.c.2.5.:.R ' K p 2 - $ + + 2 9 ( 9 * = 2 K ",
"l 8 - - 8 t , > > , 9 p V l p p ..4.5.3.v.j.c.k.C.N.M.M.M.N.C.C.C.C.C.M.M.M.V.C.c.v.j.l.9.0.,.s &.K 9 2 , 2 9 9 2 , K p 2 2 , 2 ",
"' t = * , 9 9 9 ; ; , 9 K X.' ^ 8.u.c.z.F.z.c.k.!.!.W.W.R.R.R.!.Q.Q.Q.Q.Q.R.!.!.k.c.j.l.a.a.0.,.:.( 9 8 e K ( ( 2 - K K p p - * ",
"2 8 , > , , , 8 > , 2 9 t t 9 s i.c.c.z.v.c.k.m.!.W.R.T.T.E.T.T.T.T.T.T.T.R.!.!.k.k.a.j.l.l.a.r.^ K p p K K p 9 2 , 9 2 ; 2 9 p ",
"= 2 8 8 8 , > 2 2 2 8 8 8 2 , < k.c.h.h.c.c.m.n.!.R.T.E.P.E.P.E.E.E.E.E.E.R.R.!.m.n.k.k.l.a.a.m.5 9 p p p p 8 2 9 2 - - = , ' &.",
"8 t 9 9 p 9 , 2 2 > = - 2 9 8 3 k.k.c.B.B.C.C.N.!.R.E.E.E.~.~.~.^.~.~.E.E.E.R.!.M.V.B.B.v.a.c.H.3 9 p p 9 2 2 2 9 9 - 2 8 2 K 2 ",
"p V 9 p :.&.9 , , - + $ 9 p 8 s k.k.k.g.D.!.!.R.R.R.T.E._._.^.'.'./.'.^.P.L.W.R.!.!.!.D.k.k.h.A.< 2 p p - = e 9 e 9 2 2 p 9 - * ",
"t t , 2 ' X.p 9 ; ; * = 8 2 , 3 k.k.k.i.!.!.R.W.R.W.T.E._.'./.'././.'./.P.P.E.W.Q.!.!.C.g.k.h.H.< - z 9 - - ; 2 K K p 9 p 8 - - ",
"9 8 ; , V ' K K = > , > , - = > k.k.k.y.W.R.W.W.R.E.T.E.^.'././.U.U././.K.K.E.E.W.R.Q.!.g.k.k.H.# + K p 9 p $ - :.:.' z p 8 , , ",
", > - > 9 V p p , 2 8 8 , - = - k.k.k.p.R.T.W.E.W.E.E.E.'.}.].].].Y.[.(.I.P.E.E.E.T.R.!.i.k.h.H.% * 9 9 p p $ = O.O.K p p e 9 9 ",
"* * = > , 2 , > p p p p 9 8 , < c.z.k.y.W.T.E.P._._.).`.+X$X.X.X.X.XOX|././._._.E.E.R.R.i.c.z.F.d 9 , - ; - - , 2 2 , , p K z K ",
"* * ; , ; ; , > V 9 t 9 8 9 p 5 v.j.c.i.R.T.E.P._.'./.{.$X%XoXoXoXoX%X$X'./.'._.E.P.T.R.i.c.j.J.5 9 ; , , - 2 , , , ; 2 e p 9 9 ",
"> ; 8 2 = ; 9 p , , , , - 2 K ! x.x.v.k.!.T.E.P.'.`./.]..XoX X XXXXX#X@X{./.'.'.P.P.T.R.s.l.x.J.# $ 9 ' z z 9 , 2 9 8 2 9 2 - - ",
"2 , 8 , $ - K @.= = , - $ , ' ,.x.S.j.k.!.T.E.K.'.`./.]..XoX X X XXX#X@X{./.'.'.P.K.T.R.s.l.x.J.@ . ' :.( &.9 2 - 2 8 2 2 - $ * ",
"; 2 ; , p e 2 8 . . %.K 9 2 - 1 x.b.j.k.!.R.W.K.'.`./.]..XoX X X XXX#X@X{./.'.'.P.P.E.R.s.l.x.J.: * p p + + l V = $ + + * = - > ",
", - = , ' &.2 - . o ' K 9 2 - < j.x.l.s.!.R.W.E.'.`./.]..XoX X X XXX#X@X{./.'.'.P.P.E.R.s.l.x.J.> - p 9 + + 9 K $ $ $ $ * = - ; ",
"$ = 9 e ( ( - , , ; 9 2 , , 9 n l.j.k.i.R.T.W.E._.'.`.`.$X%XoXoXoXoX%X$X'./.'._.E.P.T.R.i.l.j.J.3 - > , - , 8 2 = = = = = = = - ",
"+ - &.' 9 2 - p ' K ; - - - ( } k.h.k.p.W.T.W.E._._.).`.+X$X.X.X.X.XOX|./.^._._.E.E.R.!.i.k.z.H.3 ; = - 8 t 8 , , , > ; ; ; - - ",
"2 2 ' K 8 9 2 p ' ' ; , 2 , p s k.k.s.p.R.T.W.E.W.E.E.E.'.}.].].].Y.[.(.I.P.E.E.E.T.R.!.i.k.z.H.& - = = , 2 9 K p 9 2 , 2 8 8 2 ",
"' K K p 2 2 z K ' &.2 8 2 2 2 3 k.k.p.p.!.R.W.R.R.E.T.E.^./././.U.U././.K.K.E.E.R.R.Q.!.g.k.h.D.% * $ $ - 2 p @.l t 9 9 9 p l l ",
"O.&.p e - = ' ' :.:.2 2 ; , ; 3 k.k.k.i.!.!.R.R.R.W.T.E._.'././././.'./.P.P.E.W.R.!.!.C.g.k.h.H.& * * - , 8 9 9 p p p p p p V K ",
"&.&., 2 = $ O.p &.&.2 , - , $ < k.k.k.g.D.C.!.R.R.R.T.E._._.^.'.'./.'.^.P.L.W.R.!.!.!.D.k.c.h.A.% - 9 p 2 > , > 9 V R K t 9 t V ",
"( p p p = = e 2 ' p ; - 8 8 , 3 k.c.c.v.m.B.V.N.!.W.E.E.E.~.~.~./.~.~.E.E.W.R.!.M.C.C.B.l.h.v.Z.- , , , , > > 2 t 8 R ' 8 9 R V ",
"8 9 p K - = 9 , 9 2 = = p K p ^ k.h.h.k.c.B.m.n.!.R.T.E.P.E.E.E.E.E.E.E.E.R.Q.!.n.k.k.c.j.a.a.s.< ; - - - > 8 9 9 8 l l , 8 Y ' ",
"2 9 K ' 2 - p 9 2 , $ - z K 9 s k.c.c.z.v.c.k.k.!.R.W.T.T.E.T.T.T.T.T.T.T.R.!.!.m.k.h.l.l.l.a.r.3 > , - + * 8 t t 8 , , , 9 V Y ",
"9 p p K 8 2 ' ' 2 2 = - K p - % u.c.v.h.v.h.c.B.!.!.W.W.R.R.!.!.Q.Q.Q.Q.Q.R.!.!.m.k.z.v.a.a.r.w.< ; 8 , . + 8 V p , * $ , 9 9 8 ",
"p e 2 9 9 p &.' 2 2 = - p 9 - % 4.8.7.7.v.z.l.m.C.N.M.M.M.N.C.C.C.C.C.M.M.M.V.C.k.z.z.v.7.8.4.} > = 2 , o + 2 8 9 2 - = , 9 8 8 ",
"9 9 ; 2 z K &.( 9 8 - - 9 9 - 2 p 3 < 4 h.l.c.a.s.s.p.p.n.k.c.c.c.c.k.n.p.p.k.k.c.c.z.z.~ ! m 8 , - - - $ * = + 2 t K l 8 , t R ",
"8 2 = , p K ' K 9 9 ; - 2 2 - 2 9 > % & u.l.h.a.s.y.i.i.k.z.x.x.j.j.k.k.s.y.s.s.c.v.c.h.4 5 9 8 , , ; > > ; = $ 9 p $.@., ; 9 l ",
"2 , + $ 2 9 z p - , - - 2 , - , W l 3 < y.s.k.k.k.s.s.k.k.c.z.j.j.l.k.k.s.s.s.k.u.k.k.i.< q h l = , 8 9 t t l X.9 8 Y V = $ ; = ",
"2 = $ $ = 2 K K - = > ; > , = = ' ^ < < ! ..8.e.e.y.t.e.y.t.q.u.e.e.t.w.e.t.8.w.0.5...! < > ' ( * - l V l ' X.<.8 , ' V + + * * ",
"9 8 2 , * = 8 t 9 , 2 > , 2 - > J ^ 3 3 B m ^ } :.} m m m s < > < 3 m ^ } } 3 3 ^ ^ m m < > m K , 8 @.@.K p , 2 9 2 ' V - = = = ",
"V l l 8 = = , 2 9 8 p 8 8 8 , , b ^ 9 q p 3 9 3 &.K m p , > , = - - q m ^ K > = p K m b < > p p 2 8 R R V 9 - - 8 8 K p 9 2 - - ",
"&.K p 9 , > ; = > 2 ' ' l 9 , , p K 9 q b q p p m b :.] - - p p p 9 K m q 9 > - m K 9 9 2 3 ^ ' 8 , 8 2 8 9 2 8 > , 8 8 K K , , ",
"@.V t 9 , , ; * = 2 $.$.K 9 - , Y Y 8 , 9 8 l K , 8 $.X.* = Y R l 8 V 8 = - - , 9 9 - , 8 t X.X., - , > , 8 , , = - ; , ' @.2 8 ",
"2 2 t t , , 8 8 , 9 $.X.t 2 - , >.;.9 , 2 2 9 9 p t $.@.> 2 X.V 8 , l 8 = - 2 9 V l > , 9 8 , > + $ , 2 8 2 = * * = - , K X.9 t ",
"= > 9 t , , p ' 9 9 Y p 2 , ; 2 1.>.8 , 8 8 8 , l l X.R , 9 F 8 ; * 8 8 * ; 8 9 X.X., , 8 ; * o o + 2 9 9 , $ + - - > , 9 V 8 9 ",
"> , 9 9 , , t V t 8 9 2 , 2 > , X.W , , 9 8 8 > 9 l $.R , 8 l 8 8 - 9 9 - , t t 8 t - = 7 ; = = + = 9 9 , ; + + , - , > , 8 , 8 ",
"p K 8 , 2 , t K 8 8 + + 2 9 9 l , 8 , 9 W V , , , 8 Y l - = 9 l ; 8 l 9 8 8 9 y , = 8 , o * 8 9 , > p , * - = 2 p p - - - $ - + ",
"Y Y , > , , 8 8 , , + + 8 p 9 t - = 8 8 l Y ; > ; , l y - = 8 9 , 8 t 9 8 8 l l ; = l l - > 9 t 2 , , - - , 2 p 9 8 * = = = > = ",
"&.R > - , > > - * $ o + 2 9 , , + . 9 9 9 V = = * ; 9 9 > ; 8 9 9 9 t 9 , 8 l l * = R X.9 9 9 9 8 2 + + , 9 l R , > + * - - , > ",
"X.K - - , > - * $ * = ; t l , , * + 9 9 , 8 , , - ; 8 9 8 8 8 , l 9 l 9 , 8 l 9 * = Y X.l t 8 9 8 8   . 8 t K K * = = - , , , > ",
"p t - - 2 , , - , 2 ' ' @.X.9 9 9 9 , > + + V R , , , 8 p p , - 9 8 V l , , 9 2 * - p V t t 8 9 , ,   o 8 9 9 8 + * , 8 8 , - = ",
", , = - 8 8 9 8 2 9 <.>.@.R , 2 l ' > ; + o l K 8 2 ; , K V , = , , Y R > > 9 , = - 2 8 8 9 2 9 ; ; + + , 2 , - $ = 9 p 9 2 = * ",
"- - + = 9 l R K , , :.@.p 8 + + 8 V 2 2 , = , > 8 2 ; , K K 2 > = > X.&.> - t 2 = * ; ; 8 t , 8 = = - - > , = = 2 , p 9 9 8 = * ",
"= * . $ 9 Y &.&., ; &.' 8 , . . 8 t 8 2 9 2 * = 2 2 ; , K Y 8 8 * ; &.;.> ; p 9 $ + = = 2 t , , * + 2 , - > * - K 8 9 2 2 9 = = "
};
