/* XPM */
static char *_b37f83b61634ae3d92980c4b9d6bef9deSQdrYxmEvXrlqS[] = {
/* columns rows colors chars-per-pixel */
"64 64 139 2 ",
"   c #005800",
".  c #045D01",
"X  c #086103",
"o  c #096204",
"O  c #0A6305",
"+  c #096206",
"@  c #0A6307",
"#  c #0B6406",
"$  c #0C6507",
"%  c #0B6408",
"&  c #0C6509",
"*  c #0D6608",
"=  c #0E6709",
"-  c #0D660A",
";  c #0E670B",
":  c #0F680A",
">  c #0F680C",
",  c #10690B",
"<  c #10690D",
"1  c #116A0C",
"2  c #126B0D",
"3  c #116A0E",
"4  c #126B0F",
"5  c #136C0E",
"6  c #146D0F",
"7  c #136C10",
"8  c #146D11",
"9  c #156E10",
"0  c #166F11",
"q  c #156E12",
"w  c #166F13",
"e  c #177012",
"r  c #177014",
"t  c #187113",
"y  c #187115",
"u  c #197214",
"i  c #1A7315",
"p  c #197216",
"a  c #1A7317",
"s  c #1B7416",
"d  c #1C7517",
"f  c #1B7418",
"g  c #1C7519",
"h  c #1D7618",
"j  c #1E7719",
"k  c #1D761A",
"l  c #1E771B",
"z  c #1F781A",
"x  c #1F781C",
"c  c #20791B",
"v  c #20791D",
"b  c #217A1C",
"n  c #227B1D",
"m  c #217A1E",
"M  c #227B1F",
"N  c #237D1D",
"B  c #237C1E",
"V  c #247D1F",
"C  c #257F1F",
"Z  c #237C20",
"A  c #247D21",
"S  c #257E20",
"D  c #267F21",
"F  c #257E22",
"G  c #267F23",
"H  c #268020",
"J  c #278121",
"K  c #278022",
"L  c #278024",
"P  c #288123",
"I  c #288222",
"U  c #298323",
"Y  c #288125",
"T  c #298224",
"R  c #2A8325",
"E  c #298226",
"W  c #2A8327",
"Q  c #2A8424",
"!  c #2B8525",
"~  c #2B8426",
"^  c #2C8527",
"/  c #2C8626",
"(  c #2D8727",
")  c #2B8428",
"_  c #2C8529",
"`  c #2D8628",
"'  c #2E8729",
"]  c #2D862A",
"[  c #2E872B",
"{  c #2E8828",
"}  c #2F8929",
"|  c #2F882A",
" . c #2F882C",
".. c #30892B",
"X. c #308A2A",
"o. c #30892D",
"O. c #318A2C",
"+. c #328B2D",
"@. c #318A2E",
"#. c #328B2F",
"$. c #328C2C",
"%. c #338D2D",
"&. c #338C2E",
"*. c #348D2F",
"=. c #348E2E",
"-. c #358F2F",
";. c #338C30",
":. c #348D31",
">. c #358E30",
",. c #368F31",
"<. c #358E32",
"1. c #368F33",
"2. c #379131",
"3. c #379032",
"4. c #379034",
"5. c #389133",
"6. c #389135",
"7. c #399234",
"8. c #3A9335",
"9. c #399236",
"0. c #3A9337",
"q. c #3B9436",
"w. c #3C9537",
"e. c #3B9438",
"r. c #3C9539",
"t. c #3D9638",
"y. c #3D963A",
"u. c #3E973B",
"i. c #3F983A",
"p. c #3F983C",
"a. c #40993B",
"s. c #40993D",
"d. c #419A3C",
"f. c #419A3E",
"g. c #429B3F",
"h. c #439C40",
"j. c #459E40",
"k. c #47A042",
"l. c #4AA345",
/* pixels */
"M A A A A Y Y Y M g M A L Y ) A g L Y Y Y M p M r.0._ Z M x x A <.&.^ P V V P ~ U U P K B V ^ &.| @.K A _ K p p e 8 c c B Y Y | ",
"M A _ ) M A _ _ M Z A A Y Y Y L L A Z A A M g g r.0.<.) M x Z A *...~ K K P ~ ( K H K H K K ~ ( _ | A K &.^ t 4 : 4 z M A ~ Y @.",
"M A <.;.g M @.;.M L A L @._ Z Z _ A M M M Z M M ;.@.0.;.M p g d @.| ~ K P ~ | ..P P ~ ^ ..| ^ ~ *.^ p 8 A P z g g g Y P P Y A ~ ",
"A L 0.4.f g @.@.A ) A A 4.@.M x @._ f p Y ) Z Y L Y 0.0.x 8 f 8 ^ ^ ^ ~ P ~ ^ ..^ ^ | *.3.*.^ K *.Y 4 + s V V Y _ ~ @._ ~ ~ M B ",
"Y Y 0.<.p f _ Y _ _ M M <.<.A A 0.<.4 & 0.0.g A A A <.4.M g A M A ~ ..| Y K Y _ _ ^ _ ..@._ A g A A s p A B p p Y K _ _ @.@.V M ",
"Y L @._ p g Y A <. .x g _ ;._ _ r.<.+ + s.s.p p A A _ _ A A  ._ z A _ _ P V K ~ _ ^ ~ ~ Y A c d s V B V Y z & + K V | @.<.<.A z ",
"Z A Y A g x L L @.Y x g A _  .@.;._ 7 r 0.0.g p x M Z L Y ) _ _ p g M V V V A Y | | ^ P B M M M M K B M P M 8 8 @._ &..._ ^ M c ",
"g M A M g M L ) A M M Z Z Y _ ) A Z Z Y  .) Z M p x M L  ._ A M 8 e p g M A K Y @..._ K z g B P K ~ A V | _ P ^ 3.@.@.A z c g V ",
"g f M x x A M Y Z Z x M M A  .Y A g @.@.A Y Y M p x M M ;.<.M M p 4 4 e s V Y A | ..Y B V V A _ | | c A Y Y *._ @.3..._ d 4 B M ",
"A x Z x x A Z Y _ _ A A M M _ Y Y Y r.<.g x Y ) 8 g  ._ A Y Y _ 6 8 M M 5 8 K _ ~ ~ K A _ ..| &.*...g s g z _ _ | @.&.@.V d c d ",
"A M M g g Z x A @.@.Y A g g _ Y Y _ r.<.g g Y @.p g <.;.g Z _ @.8 f _ Y & & A _ Y Y A Y ;.<._ _ @._ g t e p Y _ Y Y <.<.~ A d e ",
"A Z Y A A L x M _ _ A M r p _ _ A Z _ Y Z Y Y ) M g Y Y M A A M L A @.@.g g ) Y M M M A @.@.L A ^ ^ K A B A _ @.A A 0.0.| ^ d p ",
"A A  .@.@._ M M A A x f 7 p _  .g p A A Y @.Y M x x g p A L 8 4 <. .4.0._ _ @.Y p g g Z ) ) A A Y ^ @.@...@.@.3.A K r.0.| _ c M ",
"r f Y _ _ Y g p L Y M g 8 p _ _ 8 f Y ) _ _ M M x A A g Y L 4 8 Y )  .@.) Y Y A M A M M L A Z A A K .._ ~ _ ~ @.V A *.*.Y A M M ",
"& 4 M A M M r p _ _ A M p f _ _ 8 M @. ._ Y g M M A _ Y Y L f g g Z M x A M g x _ _ A M Z Z Z L M c ~ A V K c K B A P ~ B g B g ",
"& 7 M Z M M g M @.@.Y Z f g _ ) f A @._ ) Y f g M g _ _ M A A g M A p p Y L g M _ Y M f M A L _ c z ^ P A P g V A P B Y A g P g ",
"z M M A | @.| @.q.5.<.<.<.<.@...x A )  ._ Y L A & 4 p g Z A Y Y Z M f p f M ) @.Z g 8 p A Y g p 4 8 f M A Y  .@.@._ M p f g M Y ",
"M A A A _ | @.3.3.0.0.0.<.@.| _ x Z Y _  .) A M 8 8 f M M A Y L x g g f g Z Y  .Z M r p Y Y g p p f x Z A Y Y ) _ _ Y M p p M Y ",
"c Y _ | ..P z z P | <.*._ A M M @.) Z g g g g f Y A Y ) M M A M M Z Z Z M M M M L Y M Z 0.e.@.@.Y L A M x f p r _ Y  .Y p p A ) ",
"V Y ^ _ @.A 8 & g V ~ _ P M z g <._ x 8 7 8 f g <.@.<.;.M x A g A A A A L A x p ) _ M A p.s.<.0.0.@.Y M f r 8 4 Y A @._ p p Y Y ",
"@.~ z g P ~ V M g M P ^ ..| _ ^ f g M A A A A A @. .<.@.Z x Z M A M f x Y _ ) A ) Y p p _ _ g f r.<.Y A Z A A L A Z @.@.M g A x ",
"&.Y p e B ~ Y ~ z c V ~ @.<.<.&.& r A _ @._ _ Y @.@.@._ Y A M M Y x 8 8 M _  ._ Y M p r g g 8 & 0.@.Y Y )  .@.@.Z Z _ @.L Z M p ",
"K P B M A V M B c c M K ^ _ ^ Y 8 g A _  .@._ _ <.<.Y L ;._ x g Y M p p g A A A M f g M x A Y M ;._ ) _  .@._ L A A A A A A L Y ",
"g K Y K A z z A K K K P Y A B z f x L @.<.<.@._ _  .g g 0.<.M g M x g x M M g p p 8 M L x L <.;._ Y ) @.<.@.Y M L A g r g A @.r.",
"B Y Y Y _ Y V A V K c g Y Y B K A Y L _ ;.0.f Y ) A x M _ _ A x M x M Z x x M M p r A Y g M Y _ A Y L @._ A _ M Y L x g Z L Y _ ",
"_ | _ ..5.<.Y A M g 5 e ~ @.Y K Y _ _ @.@.@.4 r Z A p r g g A Y A A A A A A A Y p p Y Y g f g g Z Y ) Y f p Y _ Y _ L A Y A g g ",
"@._ A Y 5.0._ A M d 6 t Y _ K B @.@._  ._ ) r f M A 7 8 f p A A M L A Z ) Y A ) x M Y Y g p g f f M _ Y f f M Y _ @._ _ _ A f p ",
"_ A s g ..5.@.| d z c c c z g z 0.<._ Y A Y ) @._ A + & f g A f g A x M  .) x Z _ _ A A M M _ _ 4 4 _ @._ ) f r 0.0.@._ _ Y M x ",
"K B s g ^ *.@.&.s c K A g p s g 0.@.@.Y M A 0.0.@.A + + p x A g M A p f _ ) g M 4.@.g g Z L <.<.8 4 Y _ _ _ p 4 r.e.@.) _ Y A A ",
"p g g z K P A K ^ Y ^ ^ A M M d M M _ _ M Z s.e.A A A A  . .L A ) Y g f Y ) A L <.;.p p Z Z _ Y M g A Z g x g g _ _ Y Y _ _ _ _ ",
"5 s g z B c d z <._ _ _ K P Y M 4 8 Y Y g g h.r.M A e.e.s.p.Y _ _ Y A A L Y ) _ _ @.r p Z g A M A A M M f p A A M Z M A _  ._ @.",
"p c M M V M M A Y V Y Y M A @.| p p Y A 4 4 s.r.A M 4.@.4.s.A @.A L _ _ Y Y _ ) A @.r f A g Y A x Z x Y Y Z Y g A A M M Y Y L Y ",
"Z A A Y p p <.<.g g M M x g s.<.L Y p 4   .  .;.A Y M Y <.@.@.@.A Y <.w.<.@.@.^ B g B M t d P P $ 4 _ 3.0.5.K V V Y ^ ~ V g t 8 ",
"A M M A M A @.Y 7 8 _ A g g @. .Z A p f 4 8 ;. .Y L Y _ M Z 0.<.A A ~ _ Y Y ~ K M M Y Y p t M B 5 4 @.<.B K ~ Y c c c c z g d s ",
"A f g M _ @.Y M . & 0.<.L Z x M M Z g A A L 4._ _ A @.@.& 7 r.e.c d g z g z M z M A _ ^ g p g z d 8 ..| , e _ | t 8 4 4 e s g g ",
"g p M Z  .<.M M & 8 ;.<.Y A M M A L M L Y ) <.@._ A _ Y % 4 4.4.d p g c d g M z A A K A M M B V M g Y A , 8 Y _ e 6 4 4 8 p d g ",
"7 p _ _  . .g A Y Y g M g x _  ._  .A A A L @.<.Y Y M g p p Y _ s z Y _ K A Y P ^ A g g K _ _ _ M V d s M M V Y g g g g g g g g ",
"4 x <.4._ L M L 0.<.8 f f x @.@.<.@.L M Z A ) 4.L ) p p A M M M s M _ @.Y K ^ _ | P d g ^ &.| _ g A 5 8 ~ Y A P B V A V M c z g ",
"A Y @.<.L M _ ) 4.;.M A M A A Y @.) M g L Y A  .Y _ f f A M g g d g V V g c P ~ ~ ~ B B _ ^ M M p g 4 t A P _ _ Y P V A K P K A ",
"e.<.) _ x x 0. .0.@._ Y M Y p ) ) M p p _ @.M A Y ) M M M g M g c d s p 6 s A Y V _ ~ Y ^ M 5 5 e e 4 s s c 3.&.@.^ A K _ @.&.@.",
"4.4._ A g g @.;.e.0.Y M A M f A Y _ f M Y A ) A Y Y Y Y Y Y A A _ ..8 e z z *.<.Y ~ V A @.^ d e p 8 B M g P A ~ ~ @._ | _ Y @.| ",
"<.<.) Z p f _ _ e.<.A g M g p M  ._ M x A Y ) ) Y Y Y _ @. .Y A 5.<.t p K ^ a.a.K Y B A @._ M g 4 8 _ | K K c B K @.&.&.~ A | &.",
"@.;._ Y g f Y L ;._ g p A A M L Y Y L A Y Y M A L A A L Y Y A M <.*.p s A Y q.w.A A M V ^ ~ B M d d Y P c M M A Y .._ .._ P ..@.",
"A _ @.@.A g A M L Z r p _ @._ @.f x  ._ @._ 7 7 A M M g f g g x Y ~ s s c z K P P K V V K A B M Y c g t 8 g K Y Y | ^ _ ~ Y &.<.",
"g ) @.;.A g Y A M x 8 g @.<.) _ p x @.@.@.Y > & g x x g p p g Z K A p g A A B z V B V V M M B M B c g p 6 p K ~ K ^ P P A V @.5.",
"A _ @.@.A A ;.;.A Z p g _ ) g f L Y _ Y Y A r p 8 f M Z M M Z L ~ V p z @.<.Y M p p z M d g c c g B B z , , K ..~ B 5 t B P _ A ",
") _ Y _ Y ) 0.0.Y A f g ) L p 8 _  .A M A x x x 8 p M A Y Y Y Y M B A P @.@.B z 4 6 z B s d B c z A c g , & V Y _ B 4 t A Y ~ z ",
"Y Y M L Y _ 0.@.A A p g _ Y g g L _ g M A g M g g g M A )  . ._ 8 A <.<._ M 8 p e p A ~ M M Y A z M s z p 5 z e K | ^ ~ A M _ @.",
"~ B g M _ <.*.| Y A c s V K g Y ~ K p p g g B g V s d A _ @.@.| 4 s k.l.M 8 8 : 8 z A | Y A _ Y V g c s p p , & ~ P r.0.M A _ @.",
"A g t s A _ @...M z z d B M p V @._ c g g z P P @.~ Y _ | _ Y Y g g 0.0.g p d t d M V Y B M _ _ z g P K P ^ P ^ Y A 5.@.p p c V ",
"V g e 8 d A _ @.d d M g M c e z *.*.K B z z _ @.*.*.| | @.^ A P A M ^ Y M B M c z M M V g c &.<.s z _ | ..<.<.w.K A <.^ 6 , 8 p ",
"Y V g p p z P | M c A M M M s z &.&.Y A B B | @.&.*.| ^ _ Y M V B M P Y _ _ c g K P A A g c @.*.z V @.&.@.@._ @.A P 3.| p 8 8 p ",
".._ P M g g M K Y A ~ A V A M M | ..K Y Y P .._ <.<.@.~ K M d s g M ~ _ <.@.g d ..@._ ^ M c ^ ~ P Y <.*.@._ M M A Y <.@.A z t s ",
"*.@._ K M g g z ~ P @._ A P B M | | K ~ _ ^ ..~ &.@.*._ c g M z M A _ _ .._ g g _ _ Y ^ K A .._ K A | _ _ ~ z g V A ..| ^ Y d s ",
"&..._ Y A M g d M A 0.5.Y Y V c &.@.P Y ~ Y .._ Y Y 0.*.s g ..| Y P _ Y A V g c ~ P B K A Y <.&.M z A A A P M B z g A P ..@.B M ",
"@.| ~ Y P A M g t B a.a._ Y V c <.*.P K A A | | K Y i.0.8 p <.3...Y _ K g z g c ..Y M B B K *...c g V c c A B Y d p g B &.0.^ Y ",
"M M _ | B B Y A K A 0.&.K A g A w.0.A Y Y M ~ K ....5.*.V A ..| V A Y P g g A P | 5.g d _ B g g 8 t A B A A 8 p e 8 c M | 5.P ^ ",
"d g Y ^ M A ..@.| _ @._ P B g B j.r.Y A K B A K @...w.q.K K ..Y z M K A d g P _ *.<.g d P z 8 , X 4 Y _ Y V 4 4 g d g g K _ K ~ ",
"V A Y Y M V | *.Y Y d g K V V K @._ P V _ _ c A P A 3.5.M B @.Y g M ~ ~ M B ^ @.Y Y g z c g z p 6 p ^ ^ M g t p K P g d c g c M ",
"@._ ~ A M V ~ _ A K $ 4 Y P ^ _ g g A A <.<.z A B c @...8 s _ Y M A | ..Y P _ _ s z A A t p Y ..Y A P B t p M A | ..d s g 8 p 6 ",
"5.@.A c B A A K M V + 4 Y Y ~ ~ t s Y Y @.&.g M M M @...e p Y P Y P ^ _ Y Y ^ ~ p g | _ d g Y _ Y V g g g M Y Y _ _ 8 e g e d 8 ",
"q.@.M s M B g s 8 8 # 5 A A V V & 8 Y | _ Y g t 8 g ^ _ M M Y K | ~ ~ Y A Y ....g g &.3._ _ Y A A B 4 6 A ^ @.*.V M 5 6 g c B B ",
"3...c p V B p t 6 4 s M Y ~ B V , p K | c g P g 8 g B K ^ ^ K V _ ^ _ ^ A A _ @.s d &.3.*.<.Y K K P + $ K _ ..<.t p d s M A c A ",
"^ Y g p K P c M K V 0.q.5.3.P Y ^ Y K V $ 4 <.@.A Y B B | | M g A Y @...V M A Y 6 p ....~ ^ B Y B ~ # $ ~ P M A 4 e P K Y P e g "
};
