/* XPM */
static char *_42662d0cfcb4f7dcaa17f8ba9341d860mCj1sGEjByYKlXF[] = {
/* columns rows colors chars-per-pixel */
"64 64 218 2 ",
"   c #6C351F",
".  c #5F3930",
"X  c #622F24",
"o  c #643323",
"O  c #6C3525",
"+  c #6B3925",
"@  c #64342B",
"#  c #6B372B",
"$  c #6D3B2C",
"%  c #643C2D",
"&  c #72372C",
"*  c #743B2D",
"=  c #7B3C2D",
"-  c #763E27",
";  c #643C33",
":  c #6B3C33",
">  c #6E3732",
",  c #753D32",
"<  c #7B3E33",
"1  c #7B412E",
"2  c #6D4235",
"3  c #6C433A",
"4  c #68443A",
"5  c #744334",
"6  c #7C4434",
"7  c #7C4836",
"8  c #75453B",
"9  c #7C453A",
"0  c #74493C",
"q  c #7C4A3B",
"w  c #764936",
"e  c #6F4941",
"r  c #784740",
"t  c #744C42",
"y  c #7A4C42",
"u  c #744741",
"i  c #775143",
"p  c #7C5244",
"a  c #7C534B",
"s  c #7C594B",
"d  c #7E5A52",
"f  c #813F2F",
"g  c #813D30",
"h  c #82432E",
"j  c #824434",
"k  c #894434",
"l  c #844A36",
"z  c #8A4A36",
"x  c #824539",
"c  c #894639",
"v  c #844B3C",
"b  c #8B4B3C",
"n  c #924D3D",
"m  c #934C39",
"M  c #8E513D",
"N  c #87503C",
"B  c #93533D",
"V  c #9B543F",
"C  c #95593E",
"Z  c #824D42",
"A  c #8B4E42",
"S  c #934D43",
"D  c #835344",
"F  c #8D5344",
"G  c #8C5947",
"H  c #83544A",
"J  c #8D554A",
"K  c #855A4C",
"L  c #8D5B4C",
"P  c #875846",
"I  c #945544",
"U  c #9A5644",
"Y  c #955945",
"T  c #9A5945",
"R  c #955649",
"E  c #9A564A",
"W  c #945A4B",
"Q  c #9A5B4B",
"!  c #845C53",
"~  c #8D5D52",
"^  c #885B55",
"/  c #945D51",
"(  c #9C5D52",
")  c #A15B46",
"_  c #A35C4C",
"`  c #A85C4C",
"'  c #A45D51",
"]  c #AC5F51",
"[  c #8F624F",
"{  c #95654F",
"}  c #9D624C",
"|  c #866155",
" . c #8D6255",
".. c #86635A",
"X. c #8B645B",
"o. c #8D685F",
"O. c #946354",
"+. c #9C6353",
"@. c #9C6857",
"#. c #95655A",
"$. c #9A665A",
"%. c #93695C",
"&. c #9B6A5C",
"*. c #946954",
"=. c #A3624D",
"-. c #A9644E",
";. c #A36353",
":. c #AB6353",
">. c #A66955",
",. c #AB6954",
"<. c #A16759",
"1. c #A36C5B",
"2. c #AB6D5D",
"3. c #B16B5B",
"4. c #AC705D",
"5. c #A6725D",
"6. c #B4725C",
"7. c #8E6A61",
"8. c #926C62",
"9. c #9C6962",
"0. c #9C6761",
"q. c #9A7264",
"w. c #9D7B6F",
"e. c #957369",
"r. c #9D7C73",
"t. c #9F7C78",
"y. c #A16D64",
"u. c #AC6C63",
"i. c #B16D62",
"p. c #A37263",
"a. c #AB7363",
"s. c #AB7869",
"d. c #A37C75",
"f. c #AB7C73",
"g. c #A57E78",
"h. c #9E8176",
"j. c #9D857C",
"k. c #9D897E",
"l. c #97857B",
"z. c #A38275",
"x. c #AA8576",
"c. c #A3847C",
"v. c #AA857B",
"b. c #A3897E",
"n. c #AA897D",
"m. c #B08C7E",
"M. c #9E8681",
"N. c #978C84",
"B. c #9D8A83",
"V. c #9D8C89",
"C. c #9D9086",
"Z. c #A28681",
"A. c #AA8780",
"S. c #A38A83",
"D. c #AB8C83",
"F. c #A38D8A",
"G. c #AC8E89",
"H. c #B28C84",
"J. c #B48D8A",
"K. c #AE9186",
"L. c #A5938B",
"P. c #AC948C",
"I. c #A8968B",
"U. c #B4958C",
"Y. c #BA948C",
"T. c #B39A8E",
"R. c #B9998E",
"E. c #B19087",
"W. c #AD9691",
"Q. c #A69B91",
"!. c #AC9B94",
"~. c #AD9C9A",
"^. c #B49692",
"/. c #BB9792",
"(. c #B39B94",
"). c #BA9B94",
"_. c #B39D9A",
"`. c #BA9D99",
"'. c #AEA195",
"]. c #ADA29B",
"[. c #AAA69C",
"{. c #B4A195",
"}. c #BBA196",
"|. c #B4A39C",
" X c #BAA39B",
".X c #BCAB9D",
"XX c #B3AA9F",
"oX c #AEACA6",
"OX c #ADA2A0",
"+X c #B3A4A2",
"@X c #BCA5A2",
"#X c #B4AAA4",
"$X c #BCAAA3",
"%X c #B4ACAA",
"&X c #BBADAA",
"*X c #BDB3AF",
"=X c #C19991",
"-X c #C3A39D",
";X c #C2A99E",
":X c #C2A097",
">X c #DBAE9C",
",X c #DBB19F",
"<X c #E3AD9D",
"1X c #E1B29F",
"2X c #C3AAA7",
"3X c #D4AFA3",
"4X c #C3B7AD",
"5X c #DDB2A3",
"6X c #C4BAB4",
"7X c #C7B9B5",
"8X c #E1B2A2",
"9X c #E4B4A4",
"0X c #E6B7A5",
"qX c #EFC2B5",
"wX c #DBD4CE",
"eX c #E5CCC3",
"rX c #E2D2CB",
"tX c #F1D8D3",
/* pixels */
"qX5X5X5X5X5X>X1X8X>X0X3XeXrXrXeX9X<X<X<X8X8X8X5X5X5X,X5X9X9X9X9X9X8X8X9X9X0X0X0X8X5X5X3XtXrXwXrX5X>X1X9X8X9X0X9X9X,X8X8X9X8X5XqX",
"y.~ ~ L P P D G G P  .| D.W.!.^.O.R I W W W L L P P P P L O.+.O.G G G W W O.+.+.D D H ^ ^.!.].(. .W W O.W O.@./ G G L G L P L &.",
"u./ W R F F b F R F / ^ A.^.(.U.( U U E E R W W F F F J W ( Q ( Q W Q Q ( ;.;.;.I A H ~ /.`._.^.L I I Q Q Q ( Q Q R Q Q Q W ( a.",
"( v v c x c j c A c A H H.`. X:X2.] ] _ n c c x , * * * = = = = j j x j j j j j b x Z H Y.)._.R./ E E I b b c x x j c x x x c ( ",
"W 6 6 6 6 j f j c 9 Z y H. X$X;X1.:.:._ c = j 6 6 , * * & & O O x x 6 6 1 1 1 1 x 9 q K R._._.^.G I I I x j j j j x c x x x v Q ",
"/ q 6 6 j l j x A Z Z t D.{.'.{.<.` ,.;.z 1 v l * $ # # O O O O 6 6 6 6 6 1 1 6 v v D ! R.(.!.P.P F Y F l j l l 6 1 6 6 6 6 6 W ",
"L 6 5 6 6 6 6 j v v y t K..XXX.X5.=.,.;.x = 6 * * $ $ $ $ $ $ $ 6 6 7 6 6 6 6 6 q w w s U.{.'.T.[ Y Y F l 6 6 1 6 1 6 6 7 7 v W ",
"/ q 6 6 l v c b = 6 5 3 S.(.Q.{.{ B T Q j 6 v 6 6 6 5 5 , $ $ * 9 9 9 6 6 5 6 6 q 8 0 s U.(.!.K.D l v b v b D v 6 6 6 6 v v Z O.",
"/ x 6 j v A b S < < , : z.U.{.T.Q U U I c j x x 9 9 x 9 < , , < 9 x 9 9 9 6 9 9 6 9 0 a Y.^.(.T.v l c c b F A b x x c j A D A <.",
"/ 9 6 9 v F A A & , > : v.^. X)./ U U I b x x 9 < 9 9 9 , , , 8 9 9 9 9 9 9 9 9 9 9 q H Y.)._.R.v v c v A F F A x 9 x 9 A F A <.",
"O.r 8 8 y H Z Z > : : 3 c.T.{.T. .J R J v 9 q q 8 8 8 8 8 2 2 2 8 8 8 0 0 0 0 0 q 8 r s E.).(.U.y q q y D H H D 9 8 q 0 D H D #.",
"g.7.X.o.7.e.8.8.........K._.|.(.e.q.q.q.%.o.8.o.7.7.7.o.........X.o.o.7.7.7.8.8.7.o.o.e.). X|.{.7.%.%.%.8.8.8.8.o. .o.o.8.e.8.v.",
").S.S.S.k.B.k.b.b.b.b.j.!.{.'.!.b.c.b.b.c.j.b.b.b.Z.Z.Z.k.k.S.b.j.j.b.b.b.b.b.b.b.Z.b.S. XXX[.'.k.c.c.b.b.b.b.b.b.j.j.j.F.F.S.}.",
"`.F.L.L.V.C.N.F.B.S.S.S.W.!.'.'.B.k.k.S.B.S.F.F.S.S.B.B.B.B.B.B.S.S.S.S.S.S.F.S.S.F.F.L.{.|.[.[.B.S.S.S.S.S.B.B.B.B.B.B.L.L.S.|.",
"(.F.F.F.V.V.N.V.M.j.j.S.U.).`._.S.j.M.S.M.M.S.Z.S.Z.Z.M.M.M.M.M.Z.S.S.S.S.Z.Z.Z.Z.Z.Z.G.(.|.+XXXS.S.S.S.M.M.M.M.M.j.M.M.L.L.F. X",
"J.d.t.c.h.h.h.h.c.d.r.d.v.H.H.A.z.r.r.z.r.r.d.r.d.d.t.c.Z.F.F.G.d.d.d.d.d.d.d.d.f.d.d.v.H.U.E.D.t.r.d.d.d.d.d.d.d.d.g.c.G.L.F. X",
"+.A v Z P L P W R I I I W Y W Y G G W J F F F I R W L L Y.^.(.R.$.Q ' ;.( ( ;.( Q Q Q R I I I Y G G G G Y I I Y Y R G ~ /.^._.$X",
":.n z b I T B I T U U U U U I I I Y I I B n n n n I I G Y.^.(.).;.) ` ` _ _ _ _ _ _ ) U U U V U Y Y Y Y U U U U V U I L R.^.~.&X",
";.b z b I Q Y I U U U U T T Y Y I I I I I n n n I Q W L Y.^.~.).+._ _ ' _ _ ;._ Q Q Q U U U U U I Y I I I I U U U Q W ~ R.W.~.%X",
":.b b M M I I B I U U U I I J F I I I I I I I I I I J K U.(.~.^.O.T _ _ Q Q Q Q R R R I Y Q Y Y I J J I R I U U I I J L R.(.~.%X",
"3.U U I l l l j I U I I c j 6 6 * & * * , 6 < < j 6 9 y E._._.^.O.T U I b x x j * * * * 6 6 6 6 & & & * , 6 < < j j 9 a ^._.+X%X",
"3.U Q Y j 6 6 1 I R E I v 6 6 6 * & * , 6 x x x 6 6 5 0 K.`.].^.O.U I I l 6 6 , , , , 6 6 9 9 6 * * * , 6 x x j 6 6 5 t R.`.+X%X",
"3.I T Y j 6 l 6 I I R I v 9 q q * & & * 9 9 9 6 9 9 8 t K._.~.^.O.T T I b j x x , , , 5 9 q 9 6 * * * , 6 9 x 6 x q 8 p R._.].%X",
"6.U T Y j 6 j 1 I I R I v 6 6 9 * & & , 9 q 9 6 6 5 w t K.^.{.).O.T T I v 6 6 6 6 5 5 5 9 9 9 6 * * * , 6 9 9 6 6 6 8 p U.(.].&X",
"6.B Y I -   O   l v b v 6 5 5 5 5 6 6 5 , # # $ 5 w w t R.}.|.}.@.T Q } 1 - * * 6 9 q 9 5 5 5 6 6 6 6 6 6 6 6 6 6 q w i R.^.!.&X",
"4.I Y I - + O O l v A v 5 $ $ 2 6 q q 8 > @ # $ q q w i U.).(.T.@.Q } ;.1 * * , v v Z q 9 6 6 7 q 9 9 q q q 9 6 q q w i U.T.!.+X",
"5.Y W D $ o o o q Z D y 5 $ $ 2 w q y 8 ; @ @ % w w w i U.}.|.}.&.+.+.+.6 # # * 0 q 0 q w 5 5 5 w w w 8 0 0 w w w w w i U.).{.$X",
"p.L L K 2 ; % % 0 y y r 3 ; ; 2 2 0 0 4 ; . . ; 0 0 0 s D.).(.).#.O.O.O.8 5 5 0 y y y t 0 0 0 w 0 0 0 0 t t 0 0 0 0 0 s D.P.W.+X",
"Y.z.z.z.r.r.w.w.z.v.v.z.c.t.t.r.z.z.z.c.h.h.t.t.r.z.w.h.}. X|. Xx.x.z.v.w.d.r.t.t.t.t.r.r.r.w.w.r.r.r.r.r.r.r.r.d.z.w.h.}.|._.&X",
"^.Z.Z.S.S.S.B.S.Z.b.c.c.Z.Z.j.j.b.c.j.B.S.S.S.S.S.S.b.S.(.(.!.!.S.b.c.S.b.F.S.S.Z.Z.Z.Z.b.b.b.b.b.b.S.S.S.S.S.b.v.D.c.S._.~.~.%X",
"~.V.V.N.V.V.N.N.V.S.S.S.F.F.V.V.B.B.B.V.F.F.F.S.B.S.B.S.(.|.OX+XB.F.N.V.B.F.M.N.N.N.N.N.B.B.B.B.B.B.B.B.B.B.B.B.j.S.j.S.|.+X+X*X",
"P.F.S.M.M.S.b.S.Z.Z.Z.S.Z.N.N.B.b.b.S.S.S.S.S.S.b.b.c.D.T.}.^.(.b.D.Z.F.Z.D.b.F.b.Z.M.M.B.B.V.B.S.S.S.S.S.Z.b.b.n.n.z.D.^. X`.$X",
"f.#.$.&.$.&.<.<.<.<.$.*.D.T.W.I.8.*.*.%.%.%.&.&.&.&.&.1.a.s.s.s.y.y.&.&.&.&.@.@.$.$.%.8./.W.W.P.8.O.&.&.$.@.@.{ 5.5.p.p.O.O.O.f.",
"a.W R Q U Q U U V T Y L m.T.!.).L F I Y I I R Y Q Q Q ) =.-.:.:.' ( Q Q T T T T I I / O.Y.^.(.^.~ W R Q I Y T B ,.,.>.} c j 6 W ",
"a.W W Q I E U U I Y I L D.^._._.L I I I I I R I Q Q _ _ :.:.:.:.Q Q Q Y Y Y Y Y I I /  .R._._.^.~ R R Y I I T B =.>.>.} v 6 6 / ",
"a.W W Q R Q U U U Q J ~ A.(.~.^.W I U E R R E E ' _ _ ' :.:.:.:.Q Q Q T T T T Y Q Y /  .R.^.!.^.~ I R Q I Y Q T >.2.2.<.b x 9 ( ",
"<.A F F A A A b b b Z H A.(.~.^.J n S I S b S S S S S S E E E E I I I I B B M B b v D K U.^.!.U.L I I I n B B B I I I I x x 6 / ",
"W 6 9 x 6 x x x x x 5 y c.(.~.^.J n S S c j x x x x x x j x c x c c c z z z z l 6 1 q a D.P.W.K.W U U I b z z z = = 6 j 6 x q ( ",
"Q 6 6 6 < x x x x x 5 y c.(.~.^.L I I I v 6 6 6 6 6 9 9 6 6 6 6 c c c z l l z l 6 6 q p D.P.W.K.W U T U m z z k j j j x 6 9 9 W ",
"Q j 6 x < x x x x 6 5 y c.^._.^.P M F M l 6 6 6 6 9 9 9 9 9 q 9 c x l l l l z l 6 6 8 p H.^.!.K.W V U U m z z k 1 j j j 6 9 9 / ",
"} j j v 6 6 x j j A q y v.^.W.^.W Y Y I l 6 6 6 6 w 5 5 8 q 6 9 x j j l v v v v 6 9 q y Y.^.P.E.W U V B z k h h x j v j 6 9 9 W ",
";.v v v x 6 6 j 6 v q p H.-X@X-XW I I F l 6 6 6 O @ o # 5 q 9 q * & & * 6 6 j 6 6 9 q a Y.).^.R.J U U B z h h j l l v v v 9 v / ",
"@.v v v 9 6 6 6 D G q D H.:X`././ T Q Y b x x 9 o o X O 5 q 9 q , $ $ 5 9 q v q 8 8 8 a U.^.(.R.G T Q I l 6 6 l 7 q v q 9 6 9 / ",
"@.D p p 0 0 8 8 q q q a H.-X@X-X/ I R F v 6 5 5 @ @ X @ 8 q 8 8 : : : 2 0 y y q y y r s G.(.W.U.K G G D q 5 5 w q q D y 0 w 0  .",
" .t i i e t t 0 y p p ! D.^.`.`. .L L ~ Z y y y ; ; @ ; 8 r 8 t 3 ; ; 4 3 t t 3 3 e e d D.(._.`.! L L K p i t i t t i t t t t ..",
"R.n.D.D.b.S.n.x.z.x.z.d.). X+X`.A.v.v.A.v.z.c.c.Z.Z.c.b.D.A.n.D.S.Z.Z.S.S.D.D.n.D.D.b.Z.`.|.!.W.D.v.n.n.n.b.S.b.S.S.D.S.S.Z.A.).",
"T.j.S.S.j.S.M.b.b.h.h.r.^._.~.~.S.b.S.F.B.B.S.B.B.V.B.M.B.N.l.l.M.M.M.B.B.M.Z.b.b.Z.j.S.(.XX].'.S.Z.Z.S.F.F.F.S.B.M.M.M.Z.Z.Z.^.",
"^.Z.S.S.M.S.S.b.b.c.h.h.^.`.@X`.F.j.S.S.k.k.B.B.M.B.B.B.V.B.N.C.B.Z.S.S.S.S.S.S.S.D.Z.G.(.|._.{.S.S.Z.S.F.F.S.S.S.j.B.M.S.S.B._.",
"/.z.z.n.z.v.v.v.f.f.f.v.J././.Y.n.v.v.v.v.v.x.x.v.n.v.h.S.k.N.N.h.n.z.z.n.v.g.v.v.v.v.H.Y.).)./.v.v.v.v.n.n.n.n.z.x.z.z.S.S.V.~.",
"f.#.#.$.#.$.@.$.1.&.&.$.0.9.0.&.#.*.O.O.O.O.O.O.O.~  .7.S.I.Q.L.X.%. .*.p.p.y.p.&.#.#.#.9.9.9.#. . .O. . .*.*.{ { *.*.q.D.(.|.&X",
"2.I I Q U Q T T ;.;.;.+.Q R E W W W W W W W R W J Z Z ^ A.T.~.K.K F N F +.>.<.+.Q R I R W W W W J J J J W W W Y Y Y P $.Y.2X@X7X",
"6.U T ) T ) ) ) ) ) =.Q T U U Q E R R R R R R R R R J ~ H.E.W.U.W I M I =.,.,.:.I I U U I I I Q I I I I R I I I =.Q R $.=X-X@X2X",
"6.Y Y T C C C C } } } } Y Y Y Y Q E Q Q Q Q E E S A J H H.E.^.R.R V B V ) ` -.` T ) T T T T T Y I I U E E E E U U U F O.=X-X@X2X",
"4.Y I C z l l l l l l l 7 7 6 6 j j j x j j j j < , , 8 H.E.!.E.W U U U m m m z k k c j j j j j j j j j j k k k k c v H Y.).|.*X",
"i.E R I c j j j 6 6 6 6 6 6 6 j j j j j j 6 j 6 * # $ ; D.P.Q.K.O.E E I j g j = x x x j x 9 x 7 6 6 j j x x j j h j 6 i T.!.].%X",
"i.E E R c x 6 x , 6 9 9 6 6 9 x j j j 6 6 6 6 6 $ $ 2 4 K.I.Q.^./ R E R c x c 6 x 9 9 9 9 9 6 w 1 1 6 6 6 j j j j l 7 i T.'.[.oX",
"i.R E E b x < x 6 6 < 9 9 x 9 6 j j 6 6 6 6 6 6 5 $ : 4 K.I.Q.P./ E E R c 6 9 6 9 9 9 9 9 9 9 q 7 7 6 6 6 6 j j j 6 p i T.Q.[.oX",
"i.E E I x * & , x 9 9 9 x x 9 6 j j j 6 6 7 7 7 5 : 2 4 K.W.!.T./ R E I c x x 9 6 6 9 9 9 9 9 9 7 7 7 q 9 9 j x 6 6 0 t T.W.[.%X",
"2.Y Y I 6 & + * v q v q 7 6 6 6 9 x x 9 9 9 9 9 q q y y ^.^.`.)./ U U I x 6 6 6 6 6 6 6 6 6 6 6 q q q v 9 9 9 x x v q a ).`.|.&X",
"1.Y Y F 6 + + $ q q q q 6 6 6 6 9 9 9 9 9 8 9 9 q 8 8 y J.^._.R.O.Q I I j 1 6 6 6 6 6 6 6 6 6 6 q q 9 9 q 9 9 9 6 q 8 y /.^.~.&X",
"2.R W J 6 $ # $ y y Z v v x x x y y y y r r y y r 8 u a G.^.`.^.O.W W J v 7 q q w w w w w w q q y y y y y y y r 8 y r s R.^._.&X",
"f.$.&.%.K K s d | .... . .~ ~  .^ ..............X.^ ..7.U.`._.(.q.$.$.%. .|  .| | | | | | | |  ...............| ..X.X.7.U.^.~.#X",
").b.F.F.k.V.V.V.N.N.B.B.S.F.F.S.Z.S.S.S.S.b.S.S.b.b.b.S._.'.'.~.G.D.D.D.S.v.S.S.S.S.S.S.F.S.F.S.b.b.S.S.S.S.b.b.b.b.b.b.(.!.].#X",
"7XXX#X#X+X#X%X%XoXoX+X#X&X&X$X$X$X$X$X$X.X.X.X.X X;X2X$X7X4X6X7X2X2X2X2X@X@X$X@X@X@X$X$X@X@X@X@X;X;X$X$X$X$X.X.X.X.X.X.X4X*X6X7X"
};
